<svg width="76" height="79" viewBox="0 0 76 79" fill="none" xmlns="http://www.w3.org/2000/svg">
<g filter="url(#filter0_f_742_173)">
<rect x="17.1719" y="28" width="30" height="23" rx="11.5" fill="#DD7DF7"/>
</g>
<path d="M35.2193 32.4693C35.36 32.3289 35.5506 32.25 35.7493 32.25C35.9481 32.25 36.1387 32.3289 36.2793 32.4693L42.7793 38.9693C42.9198 39.11 42.9987 39.3006 42.9987 39.4993C42.9987 39.6981 42.9198 39.8887 42.7793 40.0293L36.2793 46.5293C36.1877 46.6281 36.0711 46.7002 35.9418 46.7383C35.8126 46.7763 35.6755 46.7787 35.5449 46.7453C35.4144 46.712 35.2953 46.644 35.2002 46.5486C35.105 46.4532 35.0374 46.334 35.0043 46.2033C34.9709 46.073 34.9733 45.936 35.0111 45.8068C35.0489 45.6777 35.1209 45.5611 35.2193 45.4693L41.1893 39.4993L35.2193 33.5293C35.0789 33.3887 35 33.1981 35 32.9993C35 32.8006 35.0789 32.61 35.2193 32.4693ZM28.7793 32.4693C28.9198 32.61 28.9987 32.8006 28.9987 32.9993C28.9987 33.1981 28.9198 33.3887 28.7793 33.5293L22.8093 39.4993L28.7793 45.4693C28.8781 45.561 28.9502 45.6776 28.9882 45.8069C29.0263 45.9361 29.0287 46.0732 28.9953 46.2037C28.962 46.3343 28.894 46.4534 28.7986 46.5485C28.7032 46.6437 28.584 46.7113 28.4533 46.7443C28.323 46.7778 28.186 46.7754 28.0568 46.7376C27.9277 46.6998 27.8111 46.6278 27.7193 46.5293L21.2193 40.0293C21.0789 39.8887 21 39.6981 21 39.4993C21 39.3006 21.0789 39.11 21.2193 38.9693L27.7193 32.4693C27.86 32.3289 28.0506 32.25 28.2493 32.25C28.4481 32.25 28.6387 32.3289 28.7793 32.4693Z" fill="white"/>
<defs>
<filter id="filter0_f_742_173" x="-10.8281" y="0" width="86" height="79" filterUnits="userSpaceOnUse" color-interpolation-filters="sRGB">
<feFlood flood-opacity="0" result="BackgroundImageFix"/>
<feBlend mode="normal" in="SourceGraphic" in2="BackgroundImageFix" result="shape"/>
<feGaussianBlur stdDeviation="14" result="effect1_foregroundBlur_742_173"/>
</filter>
</defs>
</svg>
